<svg width="1280" height="294" viewBox="0 0 1280 294" fill="none" xmlns="http://www.w3.org/2000/svg">
<path d="M58.8187 -0.00838575L167.681 237.582L276.544 -0.00838575H334.551V294H282.901V98.9215L193.904 294H141.459L52.4617 98.9215V294H0.811604V-0.00838575H58.8187ZM653.776 294H602.126V71.1098L433.27 294H379.633V-0.00838575H431.283V216.128L596.166 -0.00838575H653.776V294ZM910.959 192.289C891.093 217.717 861.428 230.431 821.962 230.431C796.269 230.431 774.02 225.398 755.214 215.333C736.408 205.268 721.84 191.097 711.51 172.821C701.445 154.545 696.015 133.355 695.22 109.251C694.955 99.7161 694.823 80.2479 694.823 50.8471V-0.00838575H744.486V50.8471L744.884 105.278C745.413 127.793 752.168 146.334 765.146 160.902C778.39 175.47 797.328 182.754 821.962 182.754C837.059 182.754 851.362 179.708 864.871 173.615C878.379 167.523 889.372 158.65 897.848 146.996C906.323 135.077 910.561 121.171 910.561 105.278L910.959 50.8471V-0.00838575H961.02V294H910.959V192.289ZM1279.98 294H1228.33V71.1098L1059.47 294H1005.84V-0.00838575H1057.49V216.128L1222.37 -0.00838575H1279.98V294Z" fill="white"/>
</svg>
