<svg width="26" height="26" viewBox="0 0 26 26" fill="none" xmlns="http://www.w3.org/2000/svg">
<path fill-rule="evenodd" clip-rule="evenodd" d="M10.5982 1.73402C11.4956 0.0886537 13.729 0.0886677 14.6265 1.73402L17.3749 6.77282C17.6283 7.23727 18.0661 7.55422 18.5652 7.63442L23.129 8.36773C25.1184 8.68738 25.8163 11.3596 24.2669 12.725L20.9416 15.6559C20.4749 16.0672 20.2555 16.7161 20.3689 17.3496L21.3004 22.5534C21.6653 24.5919 19.6536 26.1757 17.9277 25.2089L13.3873 22.6656C12.9021 22.3938 12.3225 22.3938 11.8373 22.6656L7.29693 25.2089C5.57098 26.1757 3.55945 24.5919 3.92433 22.5534L4.85579 17.3496C4.96917 16.7161 4.74971 16.0672 4.28298 15.6559L0.957672 12.725C-0.591658 11.3596 0.106178 8.68738 2.09557 8.36773L6.65944 7.63442C7.15853 7.55422 7.5964 7.23727 7.84973 6.77282L10.5982 1.73402ZM12.9 2.79976C12.7719 2.56471 12.4528 2.56471 12.3246 2.79976L9.57619 7.83856C9.01886 8.86036 8.05555 9.55765 6.95753 9.73407L2.39368 10.4674C2.10948 10.513 2.00978 10.8948 2.23112 11.0899L5.55643 14.0207C6.58324 14.9257 7.06606 16.3533 6.81662 17.7467L5.88515 22.9506C5.83303 23.2418 6.12038 23.4682 6.36695 23.33L10.9074 20.7867C11.9745 20.1888 13.2501 20.1888 14.3172 20.7867L18.8577 23.33C19.1043 23.4682 19.3916 23.2418 19.3394 22.9506L18.4081 17.7467C18.1586 16.3533 18.6414 14.9257 19.6683 14.0207L22.9936 11.0899C23.2149 10.8948 23.1152 10.513 22.831 10.4674L18.2672 9.73407C17.1691 9.55765 16.2058 8.86036 15.6485 7.83856L12.9 2.79976Z" fill="#1B0956"/>
</svg>
