<svg width="28" height="26" viewBox="0 0 28 26" fill="none" xmlns="http://www.w3.org/2000/svg">
<path d="M16.0963 9.49716C16.0963 8.93821 15.6432 8.48511 15.0843 8.48511H6.98788C6.42894 8.48511 5.97583 8.93821 5.97583 9.49716C5.97583 10.056 6.42894 10.5092 6.98788 10.5092H15.0843C15.6432 10.5092 16.0963 10.056 16.0963 9.49716Z" fill="#1B0956"/>
<path d="M14.7469 13.5457C14.7469 12.9868 14.2938 12.5337 13.7349 12.5337H6.98788C6.42894 12.5337 5.97583 12.9868 5.97583 13.5457C5.97583 14.1047 6.42894 14.5578 6.98788 14.5578H13.7349C14.2938 14.5578 14.7469 14.1047 14.7469 13.5457Z" fill="#1B0956"/>
<path d="M15.0843 16.5815C15.6432 16.5815 16.0963 17.0347 16.0963 17.5936C16.0963 18.1525 15.6432 18.6056 15.0843 18.6056H6.98788C6.42894 18.6056 5.97583 18.1525 5.97583 17.5936C5.97583 17.0347 6.42894 16.5815 6.98788 16.5815H15.0843Z" fill="#1B0956"/>
<path fill-rule="evenodd" clip-rule="evenodd" d="M5.97577 25.6903H23.5179C25.5674 25.6903 27.2288 24.029 27.2288 21.9795V14.5578C27.2288 13.9989 26.7757 13.5458 26.2167 13.5458H21.8312V3.01129C21.8312 1.09056 19.6601 -0.0267015 18.0971 1.08971L17.861 1.25842C16.8078 2.0107 15.3812 2.00818 14.323 1.25237C12.5637 -0.00436914 10.1831 -0.00436914 8.42367 1.25237C7.36554 2.00818 5.93893 2.0107 4.88574 1.25842L4.64954 1.08971C3.08657 -0.0267015 0.915527 1.09056 0.915527 3.01129V20.6301C0.915527 23.4248 3.18107 25.6903 5.97577 25.6903ZM9.60016 2.89944C10.6558 2.1454 12.091 2.1454 13.1466 2.89944C14.9035 4.15442 17.2755 4.164 19.0374 2.9055L19.2737 2.73678C19.497 2.5773 19.8071 2.73691 19.8071 3.01129V21.9795C19.8071 22.5869 19.953 23.1602 20.2118 23.6662H5.97577C4.29895 23.6662 2.93962 22.307 2.93962 20.6301V3.01129C2.93962 2.73691 3.24977 2.5773 3.47305 2.73678L3.70927 2.9055C5.47116 4.164 7.8432 4.15441 9.60016 2.89944ZM21.8312 21.9795V15.5699H25.2047V21.9795C25.2047 22.9111 24.4496 23.6662 23.5179 23.6662C22.5863 23.6662 21.8312 22.9111 21.8312 21.9795Z" fill="#1B0956"/>
</svg>
