<svg width="26" height="28" viewBox="0 0 26 28" fill="none" xmlns="http://www.w3.org/2000/svg">
<path d="M5.19545 1.67753C5.56297 1.25641 5.51953 0.617088 5.09841 0.249566C4.6773 -0.117956 4.03799 -0.0745189 3.67045 0.346601L1.9273 2.34394C0.9385 3.47689 0.379539 4.92145 0.348193 6.42488L0.271709 10.0921C0.26005 10.6509 0.703611 11.1134 1.26244 11.125C1.82125 11.1367 2.2837 10.6931 2.29536 10.1343L2.37184 6.46709C2.3933 5.43842 2.77575 4.45005 3.45228 3.67486L5.19545 1.67753Z" fill="black"/>
<path fill-rule="evenodd" clip-rule="evenodd" d="M4.93665 8.8127C5.12408 5.81603 7.60913 3.48156 10.6117 3.48156H11.3638V2.46951C11.3638 1.72427 11.9679 1.12012 12.7132 1.12012C13.4585 1.12012 14.0626 1.72427 14.0626 2.46951V3.48156H14.8148C17.8173 3.48156 20.3024 5.81603 20.4898 8.81268L20.788 13.5808C20.9016 15.3987 21.512 17.1505 22.5525 18.6455C23.4926 19.9964 22.6556 21.862 21.0216 22.0581L16.4241 22.6097V24.0599C16.4241 26.1093 14.7627 27.7708 12.7132 27.7708C10.6637 27.7708 9.00237 26.1093 9.00237 24.0599V22.6097L4.4048 22.0581C2.77077 21.862 1.93385 19.9964 2.87394 18.6455C3.91441 17.1505 4.52473 15.3987 4.63843 13.5808L4.93665 8.8127ZM10.6117 5.50566C8.67795 5.50566 7.07751 7.00912 6.9568 8.93904L6.65859 13.7071C6.52176 15.8946 5.78735 18.0028 4.53531 19.8018C4.46735 19.8993 4.52785 20.0343 4.64596 20.0484L9.68955 20.6536C11.6981 20.8946 13.7282 20.8946 15.7368 20.6536L20.7805 20.0484C20.8985 20.0343 20.9591 19.8993 20.8911 19.8018C19.639 18.0028 18.9047 15.8946 18.7678 13.7071L18.4696 8.93904C18.3488 7.00912 16.7485 5.50566 14.8148 5.50566H10.6117ZM12.7132 25.7467C11.7816 25.7467 11.0265 24.9914 11.0265 24.0599V23.0479H14.4V24.0599C14.4 24.9914 13.6448 25.7467 12.7132 25.7467Z" fill="black"/>
<path d="M20.3281 0.249566C19.9069 0.617088 19.8635 1.25641 20.231 1.67753L21.9742 3.67486C22.6508 4.45005 23.0332 5.43842 23.0547 6.46709L23.1312 10.1343C23.1428 10.6931 23.6052 11.1367 24.164 11.125C24.7229 11.1134 25.1665 10.6509 25.1547 10.0921L25.0782 6.42488C25.0469 4.92145 24.488 3.47689 23.4992 2.34394L21.756 0.346601C21.3884 -0.0745189 20.7492 -0.117956 20.3281 0.249566Z" fill="black"/>
</svg>
