<svg width="16" height="16" viewBox="0 0 16 16" fill="none" xmlns="http://www.w3.org/2000/svg">
<path fill-rule="evenodd" clip-rule="evenodd" d="M13.3569 2.64311C11.9661 1.2523 9.63392 1.2523 8.24312 2.64311L6.96568 3.92053C6.65328 4.23295 6.14674 4.23295 5.83431 3.92053C5.5219 3.60811 5.5219 3.10158 5.83431 2.78915L7.11176 1.51174C9.12736 -0.503912 12.4726 -0.503912 14.4882 1.51174C16.5039 3.52739 16.5039 6.87264 14.4882 8.88824L13.2109 10.1657C12.8984 10.4781 12.3919 10.4781 12.0794 10.1657C11.767 9.85328 11.767 9.34672 12.0794 9.03432L13.3569 7.75688C14.7477 6.36607 14.7477 4.03391 13.3569 2.64311ZM10.9657 5.03432C11.2781 5.34674 11.2781 5.85327 10.9657 6.16567L6.16569 10.9657C5.85326 11.2781 5.34674 11.2781 5.03431 10.9657C4.7219 10.6533 4.7219 10.1467 5.03431 9.83432L9.83432 5.03432C10.1467 4.7219 10.6533 4.7219 10.9657 5.03432ZM3.92053 5.83432C4.23294 6.14674 4.23294 6.65328 3.92053 6.96568L2.6431 8.24312C1.2523 9.63392 1.2523 11.9661 2.6431 13.3569C4.03391 14.7477 6.36609 14.7477 7.75688 13.3569L9.03432 12.0795C9.34672 11.767 9.85328 11.767 10.1657 12.0795C10.4781 12.3919 10.4781 12.8984 10.1657 13.2109L8.88824 14.4882C6.87264 16.5039 3.52738 16.5039 1.51174 14.4882C-0.503912 12.4726 -0.503912 9.12736 1.51174 7.11176L2.78915 5.83432C3.10158 5.5219 3.6081 5.5219 3.92053 5.83432Z" fill="black"/>
</svg>
