<svg width="20" height="16" viewBox="0 0 20 16" fill="none" xmlns="http://www.w3.org/2000/svg">
<path fill-rule="evenodd" clip-rule="evenodd" d="M4.30667 9.69141C4.3497 9.70473 4.39313 9.71409 4.43653 9.71985C4.48386 9.82172 4.545 9.95337 4.61633 10.1073C4.79043 10.4831 5.02499 10.9915 5.26711 11.5217C5.76088 12.6031 6.25895 13.7178 6.36895 14.0369C6.50512 14.4313 6.64906 14.6995 6.8062 14.8826C6.88745 14.9773 6.98142 15.0599 7.09137 15.1225C7.14673 15.154 7.2052 15.1798 7.26623 15.1991C7.26892 15.2 7.2716 15.2008 7.27429 15.2016C7.58891 15.3103 7.87575 15.265 8.05534 15.2097C8.15143 15.18 8.22917 15.1443 8.28428 15.1153C8.31238 15.1004 8.33611 15.0867 8.35504 15.075L8.35951 15.0723L11.1381 13.4862L14.3475 15.7385C14.3949 15.7717 14.4465 15.7996 14.5012 15.8214C14.8868 15.9754 15.2601 16.0291 15.6114 15.9852C15.962 15.9414 16.2404 15.8066 16.4477 15.6548C16.6506 15.5062 16.7881 15.3397 16.8738 15.2161C16.9176 15.1529 16.9504 15.097 16.9735 15.0543C16.9852 15.0328 16.9946 15.0142 17.0017 14.9994L17.0111 14.9798L17.0145 14.972L17.016 14.9688L17.0167 14.9673L17.0173 14.9658C17.0342 14.9272 17.0471 14.8873 17.0559 14.8465L19.9859 1.3253C19.9953 1.28206 20 1.23807 20 1.19399C20 0.798028 19.837 0.421516 19.4538 0.193043C19.1262 -0.00223178 18.7613 -0.0106367 18.5306 0.00538128C18.2819 0.0226681 18.0521 0.0788839 17.8979 0.123797C17.8176 0.147176 17.7504 0.169728 17.7019 0.186933C17.6775 0.195581 17.6575 0.203005 17.6426 0.208665L17.6314 0.212967L1.19969 6.11311L1.19756 6.11383C1.18709 6.11734 1.17364 6.12193 1.15767 6.1276C1.12585 6.13893 1.08321 6.15486 1.03342 6.17556C0.936304 6.21587 0.800062 6.27878 0.660251 6.36642C0.436893 6.50645 -0.0767835 6.88989 0.00971243 7.52278C0.0787184 8.0277 0.456615 8.3378 0.686854 8.48692C0.813275 8.56881 0.933384 8.6273 1.02085 8.66545C1.06143 8.68309 1.14568 8.71441 1.18223 8.72809L1.19147 8.73151L4.30667 9.69141ZM18.2066 1.45589L18.2042 1.45681C18.1961 1.46006 18.1878 1.46318 18.1795 1.46617L1.72777 7.37349C1.71918 7.37655 1.71053 7.37952 1.70182 7.38231L1.69267 7.38546C1.68214 7.38923 1.66442 7.3958 1.64218 7.40498C1.62957 7.4102 1.6164 7.41596 1.60299 7.42208C1.62143 7.43162 1.63907 7.43981 1.65475 7.44665C1.6698 7.45322 1.68128 7.45772 1.68756 7.46006L4.77718 8.41214C4.83373 8.42959 4.88645 8.45263 4.93484 8.48053L15.1365 3.01415L15.1461 3.00899C15.1536 3.00496 15.1633 2.9998 15.175 2.99374C15.1982 2.98173 15.2301 2.96574 15.2681 2.94805C15.3389 2.91507 15.4521 2.86611 15.5797 2.83001C15.6686 2.80487 15.9306 2.73406 16.2139 2.81722C16.3887 2.86854 16.5697 2.97888 16.6873 3.16578C16.7458 3.25864 16.777 3.35192 16.792 3.43731C16.8322 3.57183 16.8259 3.70466 16.7945 3.81933C16.7269 4.06636 16.5372 4.25904 16.3647 4.40643C16.2169 4.53278 14.3043 6.22082 12.4176 7.88723C11.4766 8.71819 10.5453 9.54104 9.84927 10.156L9.39201 10.5601L15.165 14.6112C15.2973 14.6546 15.3755 14.6524 15.4118 14.6478C15.455 14.6424 15.4903 14.6272 15.5264 14.6008C15.5667 14.5713 15.602 14.5314 15.6283 14.4933L15.6294 14.4918L18.4711 1.37774C18.429 1.38702 18.3863 1.39807 18.3452 1.41004C18.2986 1.4236 18.2603 1.43652 18.2348 1.44555C18.2222 1.45002 18.2132 1.45341 18.2082 1.45529L18.2066 1.45589ZM9.888 12.609L8.73626 11.8007L8.45715 13.4257L9.888 12.609ZM7.67971 10.197L8.82504 9.18487C9.5212 8.5698 10.4526 7.74694 11.3936 6.9158L12.3497 6.07153L5.93964 9.50622L5.97403 9.58046C6.14873 9.9576 6.38435 10.4681 6.62775 11.0012C6.80976 11.3998 7.00008 11.8195 7.17344 12.208L7.45169 10.5879C7.47852 10.4317 7.56189 10.2965 7.67971 10.197Z" fill="black"/>
</svg>
