<svg width="24" height="16" viewBox="0 0 24 16" fill="none" xmlns="http://www.w3.org/2000/svg">
<path fill-rule="evenodd" clip-rule="evenodd" d="M23.8091 13.0247C23.2498 11.8469 22.5129 10.7711 21.6266 9.83846C21.325 9.47185 20.9714 9.11008 20.6953 8.82776L20.6568 8.78831C20.5144 8.64253 20.3967 8.52158 20.3005 8.4174C21.5123 6.65555 22.5495 4.76904 23.3957 2.78687L23.4299 2.70689L23.4538 2.62296C23.565 2.23282 23.6931 1.49093 23.2399 0.820476C22.7716 0.127496 22.0216 0.0025166 21.5194 0.0025166H19.2088C18.7272 -0.0205655 18.2502 0.115584 17.8461 0.392387C17.4389 0.671276 17.1274 1.07808 16.956 1.55361C16.4584 2.79285 15.8358 3.97159 15.0995 5.07009V2.23908C15.0995 1.87313 15.0666 1.26096 14.6918 0.744274C14.2431 0.125625 13.5942 0.0025166 13.1437 0.0025166H9.47744C9.0051 -0.00890084 8.54571 0.167683 8.19267 0.497326C7.83114 0.834904 7.60957 1.30646 7.57497 1.81199L7.5717 1.85987V1.90788C7.5717 2.42982 7.7695 2.81482 7.92753 3.05695C7.99829 3.16535 8.07397 3.26403 8.12177 3.32636L8.1328 3.34074C8.18377 3.4072 8.2178 3.45156 8.25195 3.50012C8.34176 3.62786 8.47095 3.82482 8.50751 4.33448V5.91804C7.87545 4.83169 7.2087 3.38607 6.70701 1.8421L6.69931 1.81841L6.69078 1.79502C6.56569 1.45248 6.36506 0.954067 5.96323 0.572658C5.4938 0.127087 4.93857 0.0025166 4.43362 0.0025166H2.08927C1.57842 0.0025166 0.962574 0.127474 0.503057 0.634292C0.051179 1.13269 0 1.72989 0 2.04742V2.19055L0.028831 2.33046C0.678175 5.48167 2.01615 8.43267 3.93763 10.9527C4.80879 12.389 5.98921 13.593 7.38501 14.468C8.80308 15.3571 10.4029 15.8811 12.0526 15.997L12.0956 16H12.1388C12.8851 16 13.6632 15.9327 14.2482 15.525C15.0375 14.9751 15.0995 14.1305 15.0995 13.7096V12.4863C15.3021 12.6574 15.5534 12.8879 15.861 13.1977C16.2329 13.5869 16.5291 13.9241 16.7831 14.2185L16.9186 14.3761L16.9194 14.3769C17.1166 14.6066 17.3108 14.8327 17.4875 15.0184C17.7097 15.252 17.9836 15.5093 18.328 15.6994C18.7008 15.9053 19.0922 15.9984 19.5079 15.9984H21.8539C22.348 15.9984 23.0569 15.8762 23.5553 15.2721C24.0984 14.6137 24.057 13.8067 23.8862 13.2268L23.8555 13.1225L23.8091 13.0247ZM17.9282 13.1382C17.6642 12.8321 17.3457 12.4693 16.9433 12.0486L16.94 12.0452C15.5456 10.6395 14.894 10.3946 14.4333 10.3946C14.1883 10.3946 13.9171 10.4234 13.7412 10.6525C13.6581 10.7607 13.6145 10.8912 13.59 11.0272C13.5656 11.163 13.5571 11.3224 13.5571 11.504V13.7096C13.5571 13.9836 13.5141 14.0986 13.3929 14.1831C13.2315 14.2956 12.8865 14.3867 12.1474 14.3874C10.7445 14.2874 9.38421 13.8411 8.17816 13.085C6.96964 12.3274 5.95056 11.2804 5.20486 10.0303L5.19674 10.0167L5.18714 10.0041C3.39668 7.67409 2.14907 4.94079 1.54268 2.0202C1.54597 1.87941 1.57514 1.79588 1.62241 1.74374C1.67112 1.69002 1.78914 1.61515 2.08927 1.61515H4.43362C4.6944 1.61515 4.82937 1.67446 4.92651 1.76666C5.03664 1.87119 5.13215 2.0487 5.24819 2.36565C5.82361 4.13522 6.60174 5.7901 7.3386 7.00689C7.7069 7.61507 8.06937 8.12132 8.39594 8.47901C8.55896 8.65769 8.71884 8.80562 8.87141 8.91087C9.01909 9.01268 9.18651 9.09299 9.35868 9.09299C9.44954 9.09299 9.55579 9.08321 9.65812 9.03579C9.76818 8.98494 9.85361 8.90001 9.91393 8.78616C10.0206 8.5849 10.0499 8.28678 10.0499 7.8962V4.27992L10.0494 4.27143C9.99607 3.39165 9.74202 2.89675 9.49465 2.54493C9.44043 2.46782 9.38697 2.39818 9.34018 2.33723L9.32737 2.32054C9.276 2.25356 9.23513 2.19944 9.20154 2.14797C9.14 2.05368 9.11615 1.98794 9.11419 1.91749C9.12222 1.83386 9.15992 1.75628 9.22004 1.70013C9.28245 1.64186 9.36411 1.61153 9.44771 1.61515H13.1437C13.3556 1.61515 13.427 1.6692 13.4628 1.71872C13.5135 1.78863 13.5571 1.93401 13.5571 2.23908V7.10773C13.5571 7.68602 13.8121 8.07757 14.1824 8.07757C14.6085 8.07757 14.9157 7.80729 15.4528 7.24567L15.4618 7.23631L15.4698 7.22599C16.6737 5.69109 17.6576 3.98103 18.3899 2.14956L18.3945 2.13584C18.4496 1.974 18.5538 1.83546 18.6913 1.74132C18.8287 1.6472 18.9917 1.60266 19.1556 1.61451L19.1646 1.61515H21.5194C21.8405 1.61515 21.9462 1.70061 21.9803 1.75115C22.0166 1.80491 22.0419 1.92015 21.9802 2.14615C21.1359 4.12045 20.0919 5.99448 18.8663 7.73677L18.8586 7.74902C18.7396 7.93931 18.6091 8.14981 18.5902 8.39149C18.57 8.65102 18.6774 8.887 18.8653 9.13986C19.0022 9.35155 19.2847 9.64064 19.5713 9.93392L19.5983 9.96155C19.8988 10.269 20.2242 10.6021 20.4855 10.9246L20.4925 10.9331L20.5001 10.9411C21.279 11.7534 21.9267 12.6925 22.4179 13.7216C22.4963 14.0017 22.4483 14.1449 22.3873 14.2188C22.3161 14.3052 22.1563 14.3858 21.8539 14.3858H19.5079C19.3247 14.3858 19.1833 14.348 19.0482 14.2734C18.9074 14.1957 18.7626 14.072 18.5811 13.8812C18.4348 13.7275 18.275 13.5415 18.0801 13.3148C18.0318 13.2585 17.9813 13.1996 17.9282 13.1382Z" fill="black"/>
</svg>
