<svg width="28" height="26" viewBox="0 0 28 26" fill="none" xmlns="http://www.w3.org/2000/svg">
<path d="M16.1385 9.38217C16.1385 8.82322 15.6854 8.37012 15.1265 8.37012H7.03011C6.47118 8.37012 6.01807 8.82322 6.01807 9.38217C6.01807 9.94106 6.47118 10.3942 7.03011 10.3942H15.1265C15.6854 10.3942 16.1385 9.94106 16.1385 9.38217Z" fill="black"/>
<path d="M14.7892 13.4305C14.7892 12.8716 14.336 12.4185 13.7771 12.4185H7.03011C6.47118 12.4185 6.01807 12.8716 6.01807 13.4305C6.01807 13.9894 6.47118 14.4426 7.03011 14.4426H13.7771C14.336 14.4426 14.7892 13.9894 14.7892 13.4305Z" fill="black"/>
<path d="M15.1265 16.4668C15.6854 16.4668 16.1385 16.9199 16.1385 17.4788C16.1385 18.0378 15.6854 18.4909 15.1265 18.4909H7.03011C6.47118 18.4909 6.01807 18.0378 6.01807 17.4788C6.01807 16.9199 6.47118 16.4668 7.03011 16.4668H15.1265Z" fill="black"/>
<path fill-rule="evenodd" clip-rule="evenodd" d="M6.01825 25.5753H23.5604C25.6099 25.5753 27.2713 23.914 27.2713 21.8645V14.4428C27.2713 13.8839 26.8181 13.4308 26.2592 13.4308H21.8737V2.8963C21.8737 0.975569 19.7026 -0.141692 18.1396 0.974719L17.9035 1.14343C16.8503 1.89571 15.4237 1.89319 14.3655 1.13738C12.6061 -0.119359 10.2256 -0.119359 8.46615 1.13738C7.40802 1.89319 5.98141 1.89571 4.92822 1.14343L4.69202 0.974719C3.12905 -0.141692 0.958008 0.975569 0.958008 2.8963V20.5151C0.958008 23.3098 3.22355 25.5753 6.01825 25.5753ZM9.64264 2.78445C10.6983 2.03041 12.1334 2.03041 13.1891 2.78445C14.946 4.03943 17.318 4.04901 19.0799 2.79051L19.3162 2.62179C19.5395 2.46231 19.8496 2.62192 19.8496 2.8963V21.8645C19.8496 22.4719 19.9954 23.0452 20.2543 23.5512H6.01825C4.34143 23.5512 2.9821 22.192 2.9821 20.5151V2.8963C2.9821 2.62192 3.29225 2.46231 3.51553 2.62179L3.75175 2.79051C5.51364 4.04901 7.88568 4.03942 9.64264 2.78445ZM21.8737 21.8645V15.4549H25.2472V21.8645C25.2472 22.7961 24.492 23.5512 23.5604 23.5512C22.6288 23.5512 21.8737 22.7961 21.8737 21.8645Z" fill="black"/>
</svg>
