<svg width="25" height="28" viewBox="0 0 25 28" fill="none" xmlns="http://www.w3.org/2000/svg">
<path d="M4.98231 1.67753C5.34983 1.25641 5.3064 0.617088 4.88528 0.249566C4.46417 -0.117956 3.82485 -0.0745189 3.45732 0.346601L1.71416 2.34394C0.725365 3.47689 0.166405 4.92145 0.135058 6.42488L0.0585743 10.0921C0.0469155 10.6509 0.490476 11.1134 1.0493 11.125C1.60811 11.1367 2.07057 10.6931 2.08223 10.1343L2.15871 6.46709C2.18016 5.43842 2.56261 4.45005 3.23914 3.67486L4.98231 1.67753Z" fill="#1B0956"/>
<path fill-rule="evenodd" clip-rule="evenodd" d="M4.72351 8.81245C4.91094 5.81579 7.396 3.48132 10.3985 3.48132H11.1507V2.46927C11.1507 1.72403 11.7548 1.11987 12.5001 1.11987C13.2454 1.11987 13.8495 1.72403 13.8495 2.46927V3.48132H14.6016C17.6042 3.48132 20.0892 5.81579 20.2767 8.81244L20.5749 13.5805C20.6885 15.3984 21.2988 17.1502 22.3393 18.6452C23.2795 19.9961 22.4424 21.8618 20.8085 22.0579L16.2109 22.6095V24.0597C16.2109 26.109 14.5495 27.7705 12.5001 27.7705C10.4506 27.7705 8.78923 26.109 8.78923 24.0597V22.6095L4.19166 22.0579C2.55764 21.8618 1.72071 19.9961 2.66081 18.6452C3.70128 17.1502 4.3116 15.3984 4.4253 13.5805L4.72351 8.81245ZM10.3985 5.50542C8.46481 5.50542 6.86437 7.00887 6.74367 8.93879L6.44545 13.7068C6.30862 15.8943 5.57421 18.0025 4.32217 19.8015C4.25422 19.8991 4.31471 20.034 4.43283 20.0482L9.47641 20.6534C11.4849 20.8944 13.5151 20.8944 15.5237 20.6534L20.5673 20.0482C20.6854 20.034 20.746 19.8991 20.678 19.8015C19.4259 18.0025 18.6915 15.8943 18.5547 13.7068L18.2565 8.93879C18.1357 7.00887 16.5353 5.50542 14.6016 5.50542H10.3985ZM12.5001 25.7464C11.5685 25.7464 10.8133 24.9912 10.8133 24.0597V23.0476H14.1868V24.0597C14.1868 24.9912 13.4317 25.7464 12.5001 25.7464Z" fill="#1B0956"/>
<path d="M20.1149 0.249566C19.6938 0.617088 19.6503 1.25641 20.0179 1.67753L21.7611 3.67486C22.4377 4.45005 22.8201 5.43842 22.8415 6.46709L22.918 10.1343C22.9296 10.6931 23.3921 11.1367 23.9509 11.125C24.5098 11.1134 24.9533 10.6509 24.9416 10.0921L24.8651 6.42488C24.8338 4.92145 24.2749 3.47689 23.286 2.34394L21.5429 0.346601C21.1753 -0.0745189 20.5361 -0.117956 20.1149 0.249566Z" fill="#1B0956"/>
</svg>
