<svg width="28" height="28" viewBox="0 0 28 28" fill="none" xmlns="http://www.w3.org/2000/svg">
<path d="M26.8228 21.1429L24.112 18.4286C23.5414 17.8571 22.6853 17.8571 22.1147 18.4286C21.5439 19 21.5439 19.8572 22.1147 20.4287L24.8255 23.1428C25.2534 23.5715 25.2534 24.2858 24.8255 24.7143C24.3975 25.1429 23.684 25.1429 23.2561 24.7143L18.9757 20.4287C19.2612 20.1429 19.5465 20 19.8318 19.7142C21.972 17.5714 23.2561 14.5715 23.2561 11.5714C23.2561 8.42858 22.1147 5.57143 19.8318 3.42858C15.2663 -1.14286 7.98981 -1.14286 3.4242 3.42858C-1.1414 8 -1.1414 15.2857 3.4242 19.8572C5.56432 22 8.5605 23.2858 11.5567 23.2858C13.2688 23.2858 14.9808 22.8571 16.4076 22.1428L21.1159 26.8572C21.8293 27.5715 22.9706 28 23.9694 28C24.9681 28 25.9669 27.5715 26.8228 26.8572C28.3924 25.1429 28.3924 22.5715 26.8228 21.1429ZM5.42165 17.5714C1.99745 14.1429 1.99745 8.57144 5.42165 5.28572C7.13375 3.57143 9.27387 2.71428 11.5567 2.71428C13.8395 2.71428 15.9796 3.57143 17.6916 5.28572C19.4038 7.00001 20.2598 9.14286 20.2598 11.4286C20.2598 13.7142 19.4038 16 17.6916 17.5714C15.9796 19.1429 13.8395 20.1429 11.5567 20.1429C9.27387 20.1429 6.99108 19.2857 5.42165 17.5714Z" fill="black"/>
</svg>
