<svg width="26" height="26" viewBox="0 0 26 26" fill="none" xmlns="http://www.w3.org/2000/svg">
<path fill-rule="evenodd" clip-rule="evenodd" d="M11.4439 1.61927C12.3413 -0.0260924 14.5748 -0.0260784 15.4722 1.61927L18.2206 6.65807C18.474 7.12253 18.9118 7.43948 19.4109 7.51967L23.9747 8.25298C25.9641 8.57263 26.662 11.2448 25.1126 12.6102L21.7873 15.5412C21.3206 15.9524 21.1012 16.6014 21.2146 17.2349L22.1461 22.4386C22.511 24.4772 20.4993 26.061 18.7734 25.0941L14.233 22.5509C13.7478 22.2791 13.1682 22.2791 12.683 22.5509L8.14263 25.0941C6.41669 26.061 4.40515 24.4772 4.77003 22.4386L5.7015 17.2349C5.81487 16.6014 5.59541 15.9524 5.12868 15.5412L1.80338 12.6102C0.254045 11.2448 0.951882 8.57263 2.94128 8.25298L7.50514 7.51967C8.00423 7.43948 8.4421 7.12253 8.69543 6.65807L11.4439 1.61927ZM13.7457 2.68501C13.6176 2.44996 13.2985 2.44996 13.1703 2.68501L10.4219 7.72381C9.86456 8.74561 8.90125 9.4429 7.80323 9.61932L3.23938 10.3527C2.95518 10.3983 2.85549 10.7801 3.07682 10.9752L6.40213 13.906C7.42894 14.811 7.91176 16.2385 7.66232 17.632L6.73085 22.8359C6.67873 23.1271 6.96608 23.3534 7.21265 23.2153L11.7531 20.6719C12.8202 20.0741 14.0958 20.0741 15.1629 20.6719L19.7034 23.2153C19.95 23.3534 20.2373 23.1271 20.1851 22.8359L19.2538 17.632C19.0043 16.2385 19.4871 14.811 20.514 13.906L23.8393 10.9752C24.0606 10.7801 23.9609 10.3983 23.6767 10.3527L19.1129 9.61932C18.0148 9.4429 17.0515 8.74561 16.4942 7.72381L13.7457 2.68501Z" fill="black"/>
</svg>
