<svg width="21" height="28" viewBox="0 0 21 28" fill="none" xmlns="http://www.w3.org/2000/svg">
<path fill-rule="evenodd" clip-rule="evenodd" d="M10.5 2.04878C5.79054 2.04878 2.03226 5.76017 2.03226 10.2657C2.03226 13.0036 3.14449 15.3649 5.12853 16.8355C5.56581 17.1596 5.9399 17.643 6.08317 18.2563C6.20076 18.7596 6.33533 19.3729 6.46864 20.0227H14.5313C14.6646 19.3729 14.7992 18.7596 14.9168 18.2563C15.0601 17.643 15.4342 17.1596 15.8715 16.8355C17.8556 15.3649 18.9677 13.0036 18.9677 10.2657C18.9677 5.76017 15.2094 2.04878 10.5 2.04878ZM14.1428 22.0715H6.85722C7.00681 22.9424 7.12416 23.7671 7.1597 24.3592C7.19711 24.9826 7.65926 25.5412 8.34066 25.6897L8.60621 25.7476C9.8532 26.0191 11.1468 26.0191 12.3938 25.7476L12.6593 25.6897C13.3407 25.5412 13.803 24.9826 13.8404 24.3592C13.8759 23.7671 13.9932 22.9424 14.1428 22.0715ZM0 10.2657C0 4.56354 4.73386 0 10.5 0C16.2662 0 21 4.56354 21 10.2657C21 13.5763 19.6403 16.585 17.0753 18.4861C16.9582 18.5729 16.9093 18.6641 16.895 18.726C16.7346 19.4125 16.5392 20.3212 16.361 21.243C16.1134 22.5246 15.9118 23.7675 15.8688 24.4829C15.774 26.0649 14.6195 27.3587 13.0886 27.6923L12.823 27.75C11.2931 28.0833 9.70688 28.0833 8.17699 27.75L7.91145 27.6923C6.38049 27.3587 5.22609 26.0649 5.13114 24.4829C5.0882 23.7675 4.8866 22.5246 4.63895 21.243C4.46081 20.3212 4.26544 19.4125 4.10504 18.726C4.0906 18.6641 4.04169 18.5729 3.92471 18.4861C1.35968 16.585 0 13.5763 0 10.2657Z" fill="#1B0956"/>
</svg>
