<svg width="1986" height="1986" viewBox="0 0 1986 1986" fill="none" xmlns="http://www.w3.org/2000/svg">
<rect width="1986" height="1986" fill="white"/>
<path d="M487.851 1300.56L581.388 1504.7L674.926 1300.56H724.767V1553.18H680.388V1385.56L603.919 1553.18H558.857L482.389 1385.56V1553.18H438.01V1300.56H487.851ZM1006.56 1553.18H962.185V1361.66L817.099 1553.18H771.013V1300.56H815.392V1486.27L957.064 1300.56H1006.56V1553.18ZM1235.05 1465.78C1217.98 1487.63 1192.49 1498.56 1158.58 1498.56C1136.51 1498.56 1117.39 1494.23 1101.23 1485.58C1085.07 1476.93 1072.56 1464.76 1063.68 1449.06C1055.03 1433.35 1050.37 1415.15 1049.68 1394.44C1049.46 1386.24 1049.34 1369.51 1049.34 1344.25V1300.56H1092.02V1344.25L1092.36 1391.02C1092.81 1410.37 1098.61 1426.3 1109.77 1438.81C1121.15 1451.33 1137.42 1457.59 1158.58 1457.59C1171.56 1457.59 1183.85 1454.97 1195.45 1449.74C1207.06 1444.5 1216.5 1436.88 1223.79 1426.87C1231.07 1416.62 1234.71 1404.68 1234.71 1391.02L1235.05 1344.25V1300.56H1278.07V1553.18H1235.05V1465.78ZM1559.64 1553.18H1515.26V1361.66L1370.17 1553.18H1324.09V1300.56H1368.46V1486.27L1510.14 1300.56H1559.64V1553.18Z" fill="black"/>
<path d="M864.055 695.487V857.518C905.48 871.151 941.924 885.047 973.386 899.205L936.418 992.018C904.956 978.385 879 967.897 858.549 960.556C837.575 1092.17 758.395 1181.84 621.01 1229.56L580.896 1144.61C634.382 1127.31 676.593 1101.61 707.531 1067.53C738.469 1032.92 757.346 987.037 764.163 929.881C697.044 911.003 633.333 898.681 573.03 892.912L561.232 983.366C544.452 1107.12 488.607 1168.99 393.696 1168.99C348.076 1168.99 311.37 1155.36 283.579 1128.09C255.787 1100.82 241.891 1059.92 241.891 1005.39C241.891 932.502 264.963 879.541 311.108 846.506C357.252 812.946 417.555 795.118 492.015 793.02L509.32 660.879H289.084V568.066H517.185L614.718 580.651L585.615 796.953C643.296 802.721 703.86 813.471 767.309 829.202V695.487H864.055ZM337.064 999.097C337.064 1020.07 341.784 1036.85 351.222 1049.44C361.185 1062.02 375.081 1068.31 392.91 1068.31C415.457 1068.31 433.024 1058.88 445.609 1040C458.194 1020.6 466.321 995.427 469.992 964.489L479.43 890.553C435.908 893.699 401.299 903.924 375.605 921.228C349.911 938.008 337.064 963.965 337.064 999.097ZM1143.28 629.417V527.165H1243.96V629.417H1687.58V722.23H1243.17C1239.5 780.435 1232.69 830.513 1222.72 872.462H1231.38C1283.81 841.524 1348.57 826.055 1425.65 826.055C1474.95 826.055 1520.57 832.61 1562.52 845.719C1604.99 858.828 1639.34 880.065 1665.55 909.43C1692.3 938.27 1705.67 975.763 1705.67 1021.91C1705.67 1096.37 1671.85 1149.07 1604.2 1180C1537.08 1210.42 1450.56 1225.62 1344.64 1225.62C1288.01 1225.62 1238.45 1220.12 1195.98 1209.11L1218 1112.36C1257.86 1122.85 1301.9 1128.09 1350.15 1128.09C1517.94 1128.09 1601.84 1092.17 1601.84 1020.33C1601.84 987.299 1586.11 962.129 1554.65 944.825C1523.71 926.996 1481.5 918.082 1428.01 918.082C1342.54 918.082 1265.2 941.154 1195.98 987.299L1093.73 966.062C1107.36 934.6 1118.11 897.37 1125.98 854.371C1134.37 811.373 1139.61 767.326 1141.71 722.23H1019.01V629.417H1143.28Z" fill="#C61C1C"/>
</svg>
