<svg width="53" height="42" viewBox="0 0 53 42" fill="none" xmlns="http://www.w3.org/2000/svg">
<path d="M5.67186 2.87452C5.67186 2.65894 5.54488 2.46359 5.34787 2.37605L0.766924 0.340743C0.406228 0.180487 0 0.444518 0 0.839212V16.6555C0 16.8711 0.126973 17.0664 0.323985 17.1539L4.90493 19.1893C5.26563 19.3495 5.67186 19.0855 5.67186 18.6908V14.6992C5.67186 14.3045 6.07809 14.0405 6.43878 14.2007L11.0197 16.2361C11.2167 16.3236 11.3437 16.5189 11.3437 16.7345V21.2755C11.3437 21.4911 11.4707 21.6864 11.6677 21.7739L16.2486 23.8093C16.6093 23.9695 17.0156 23.7055 17.0156 23.3108V7.4886C17.0156 7.27605 16.8921 7.08286 16.6992 6.99359L12.1183 4.87347C11.7568 4.70617 11.3437 4.97016 11.3437 5.36848V9.87079C11.3437 10.2655 10.9375 10.5295 10.5768 10.3693L5.99584 8.33395C5.79883 8.24641 5.67186 8.05106 5.67186 7.83548V2.87452Z" fill="black"/>
<path d="M17.0156 25.3526C17.0156 25.1329 16.8838 24.9347 16.6812 24.8497L0.756508 18.1674C0.397059 18.0166 0 18.2806 0 18.6704V34.5055C0 34.7211 0.126973 34.9164 0.323985 35.0039L4.90493 37.0393C5.26563 37.1995 5.67186 36.9355 5.67186 36.5408V26.8792C5.67186 26.4845 6.07809 26.2205 6.43878 26.3807L11.0197 28.4161C11.2167 28.5036 11.3437 28.6989 11.3437 28.9145V39.1255C11.3437 39.3411 11.4707 39.5364 11.6677 39.6239L16.2486 41.6593C16.6093 41.8195 17.0156 41.5555 17.0156 41.1608V25.3526Z" fill="black"/>
<path d="M23.5277 5.36133C23.5277 4.96482 23.1181 4.7008 22.7569 4.86458L18.176 6.94229C17.9811 7.03071 17.8558 7.22498 17.8558 7.43904V23.3108C17.8558 23.7055 18.2621 23.9695 18.6228 23.8093L23.3305 21.7176C23.4572 21.6613 23.5577 21.5589 23.6116 21.4312L28.1516 10.6733C28.3829 10.1253 29.1996 10.2906 29.1996 10.8854V18.6908C29.1996 19.0855 29.6058 19.3495 29.9665 19.1893L34.5474 17.1539C34.7444 17.0664 34.8714 16.8711 34.8714 16.6555V0.839213C34.8714 0.444519 34.4652 0.180487 34.1045 0.340743L29.3999 2.43099C29.2713 2.48811 29.1698 2.59269 29.1165 2.72288L24.578 13.8135C24.3514 14.3671 23.5277 14.2051 23.5277 13.6069V5.36133Z" fill="black"/>
<path fill-rule="evenodd" clip-rule="evenodd" d="M17.8558 25.3526C17.8558 25.1329 17.9877 24.9347 18.1902 24.8497L34.1149 18.1674C34.4744 18.0166 34.8714 18.2806 34.8714 18.6704V34.4974C34.8714 34.7171 34.7396 34.9153 34.537 35.0003L18.6124 41.6826C18.2529 41.8334 17.8558 41.5694 17.8558 41.1796V25.3526ZM29.1996 26.8792C29.1996 26.4845 28.7933 26.2205 28.4326 26.3807L23.8517 28.4161C23.6547 28.5036 23.5277 28.6989 23.5277 28.9145V32.9708C23.5277 33.3655 23.9339 33.6295 24.2946 33.4693L28.8756 31.4339C29.0726 31.3464 29.1996 31.1511 29.1996 30.9355V26.8792Z" fill="black"/>
<path d="M52.7273 7.50265C52.7273 7.28295 52.5955 7.08469 52.3929 6.99968L36.4682 0.317443C36.1088 0.166612 35.7117 0.430598 35.7117 0.82041V16.6555C35.7117 16.8711 35.8387 17.0664 36.0357 17.1539L40.6166 19.1893C40.9773 19.3495 41.3836 19.0855 41.3836 18.6908V9.02921C41.3836 8.63452 41.7898 8.37049 42.1505 8.53074L46.7314 10.5661C46.9284 10.6536 47.0554 10.8489 47.0554 11.0645V21.2755C47.0554 21.4911 47.1824 21.6864 47.3794 21.7739L51.9603 23.8093C52.321 23.9695 52.7273 23.7055 52.7273 23.3108V7.50265Z" fill="black"/>
<path d="M41.3836 20.7245C41.3836 20.5089 41.2566 20.3136 41.0596 20.2261L36.4786 18.1907C36.1179 18.0305 35.7117 18.2945 35.7117 18.6892V34.5055C35.7117 34.7211 35.8387 34.9164 36.0357 35.0039L40.6166 37.0393C40.9773 37.1995 41.3836 36.9355 41.3836 36.5408V32.5492C41.3836 32.1545 41.7898 31.8905 42.1505 32.0507L46.7314 34.0861C46.9284 34.1736 47.0554 34.3689 47.0554 34.5845V39.1255C47.0554 39.3411 47.1824 39.5364 47.3794 39.6239L51.9603 41.6593C52.321 41.8195 52.7273 41.5555 52.7273 41.1608V25.3386C52.7273 25.126 52.6038 24.9329 52.4109 24.8436L47.83 22.7235C47.4685 22.5562 47.0554 22.8202 47.0554 23.2185V27.7208C47.0554 28.1155 46.6492 28.3795 46.2885 28.2193L41.7075 26.1839C41.5105 26.0964 41.3836 25.9011 41.3836 25.6855V20.7245Z" fill="black"/>
</svg>
