<svg width="580" height="456" viewBox="0 0 580 456" fill="none" xmlns="http://www.w3.org/2000/svg">
<path d="M62.3904 28.6198C62.3904 26.2484 60.9937 24.0994 58.8266 23.1366L8.43616 0.748178C4.46851 -1.01464 0 1.8897 0 6.23134V180.21C0 182.582 1.39671 184.731 3.56384 185.693L53.9543 208.082C57.9219 209.845 62.3904 206.94 62.3904 202.599V158.691C62.3904 154.35 66.859 151.445 70.8266 153.208L121.217 175.597C123.384 176.559 124.781 178.708 124.781 181.08V231.03C124.781 233.402 126.178 235.551 128.345 236.513L178.735 258.902C182.703 260.665 187.171 257.76 187.171 253.419V79.3746C187.171 77.0365 185.813 74.9114 183.691 73.9294L133.301 50.6082C129.325 48.7679 124.781 51.6718 124.781 56.0533V105.579C124.781 109.92 120.312 112.825 116.345 111.062L65.9543 88.6734C63.7871 87.7106 62.3904 85.5616 62.3904 83.1902V28.6198Z" fill="black"/>
<path d="M187.171 275.879C187.171 273.462 185.721 271.282 183.493 270.346L8.32159 196.842C4.36765 195.183 0 198.087 0 202.375V376.56C0 378.932 1.39671 381.081 3.56384 382.043L53.9543 404.432C57.9219 406.195 62.3904 403.29 62.3904 398.949V292.671C62.3904 288.33 66.859 285.425 70.8266 287.188L121.217 309.577C123.384 310.539 124.781 312.688 124.781 315.06V427.38C124.781 429.752 126.178 431.901 128.345 432.863L178.735 455.252C182.703 457.015 187.171 454.11 187.171 449.769V275.879Z" fill="black"/>
<path d="M258.805 55.9746C258.805 51.613 254.299 48.7088 250.326 50.5104L199.936 73.3652C197.792 74.3378 196.414 76.4748 196.414 78.8295V253.419C196.414 257.76 200.883 260.665 204.851 258.902L256.636 235.894C258.029 235.275 259.135 234.148 259.728 232.743L309.667 114.406C312.211 108.378 321.195 110.196 321.195 116.739V202.599C321.195 206.94 325.664 209.845 329.631 208.082L380.022 185.693C382.189 184.731 383.586 182.582 383.586 180.21V6.23134C383.586 1.88971 379.117 -1.01464 375.149 0.748181L323.399 23.7409C321.985 24.3692 320.868 25.5195 320.282 26.9517L270.358 148.949C267.866 155.038 258.805 153.256 258.805 146.676V55.9746Z" fill="black"/>
<path fill-rule="evenodd" clip-rule="evenodd" d="M196.414 275.879C196.414 273.462 197.864 271.282 200.093 270.346L375.264 196.842C379.218 195.183 383.586 198.087 383.586 202.375V376.471C383.586 378.888 382.136 381.068 379.907 382.004L204.736 455.508C200.782 457.167 196.414 454.263 196.414 449.975V275.879ZM321.195 292.671C321.195 288.33 316.727 285.425 312.759 287.188L262.369 309.577C260.201 310.539 258.805 312.688 258.805 315.06V359.679C258.805 364.02 263.273 366.925 267.241 365.162L317.631 342.773C319.798 341.811 321.195 339.662 321.195 337.29V292.671Z" fill="black"/>
<path d="M580 79.5291C580 77.1124 578.55 74.9316 576.322 73.9965L401.15 0.491871C397.196 -1.16726 392.829 1.7366 392.829 6.02453V180.21C392.829 182.582 394.225 184.731 396.393 185.693L446.783 208.082C450.751 209.845 455.219 206.94 455.219 202.599V96.3213C455.219 91.9797 459.688 89.0754 463.655 90.8382L514.046 113.227C516.213 114.189 517.61 116.338 517.61 118.71V231.03C517.61 233.402 519.006 235.551 521.173 236.513L571.564 258.902C575.531 260.665 580 257.76 580 253.419V79.5291Z" fill="black"/>
<path d="M455.219 224.97C455.219 222.598 453.822 220.449 451.655 219.487L401.265 197.098C397.297 195.335 392.829 198.24 392.829 202.581V376.56C392.829 378.932 394.225 381.081 396.393 382.043L446.783 404.432C450.751 406.195 455.219 403.29 455.219 398.949V355.041C455.219 350.7 459.688 347.795 463.655 349.558L514.046 371.947C516.213 372.909 517.61 375.058 517.61 377.43V427.38C517.61 429.752 519.006 431.901 521.173 432.863L571.564 455.252C575.531 457.015 580 454.11 580 449.769V275.725C580 273.387 578.642 271.261 576.52 270.279L526.13 246.958C522.153 245.118 517.61 248.022 517.61 252.403V301.929C517.61 306.27 513.141 309.175 509.173 307.412L458.783 285.023C456.616 284.061 455.219 281.912 455.219 279.54V224.97Z" fill="black"/>
</svg>
