<svg width="56" height="42" viewBox="0 0 56 42" fill="none" xmlns="http://www.w3.org/2000/svg">
<path d="M5.44966 1.94259L0 0V15.3969L5.44966 17.4834V11.5117L9.77181 13.3823V19.0662L16.443 22.088L15.7852 5.53999L9.77181 3.52545V8.7057L5.44966 6.907V1.94259Z" fill="black"/>
<path d="M16.443 24.1745L0 17.4834V31.5132L5.44966 33.9594V23.7428L9.77181 25.8293V35.902L16.443 38.636V24.1745Z" fill="black"/>
<path d="M22.3624 4.53272L17.4765 5.53999L17.9463 22.088L23.8658 20.1454L30.7248 10.9361V17.8431L36.0805 16.1883V1.94259L30.7248 3.09376L22.3624 13.3823V4.53272Z" fill="black"/>
<path d="M55.4362 8.7057L37.9597 1.94259V16.9078L43.1275 19.4979V9.64103L49.6107 12.3031V22.7356L55.4362 25.1098V8.7057Z" fill="black"/>
<path d="M43.1275 21.0088L37.9597 18.4906V33.168L43.1275 35.902V30.7218L49.6107 33.9594V38.636L56 42V26.5488L49.6107 23.7428V29.5706L43.1275 26.5488V21.0088Z" fill="black"/>
<path fill-rule="evenodd" clip-rule="evenodd" d="M17.9463 23.7428L36.0805 18.4906V33.168L17.9463 38.636V23.7428ZM30.7248 25.1098L24.4295 26.6927V32.3766L30.7248 30.2901V25.1098Z" fill="black"/>
</svg>
