<svg width="1173" height="261" viewBox="0 0 1173 261" fill="none" xmlns="http://www.w3.org/2000/svg">
<path d="M62.5897 28.7578C62.5897 26.3879 61.1947 24.2401 59.0297 23.2763L8.43999 0.757077C4.47192 -1.00925 0 1.89508 0 6.23853V181.164C0 183.534 1.39494 185.682 3.56001 186.646L54.1497 209.165C58.1178 210.931 62.5897 208.027 62.5897 203.683V159.473C62.5897 155.13 67.0616 152.225 71.0297 153.992L121.619 176.511C123.784 177.475 125.179 179.623 125.179 181.993V232.242C125.179 234.612 126.574 236.76 128.739 237.724L179.329 260.243C183.297 262.009 187.769 259.105 187.769 254.761V79.7708C187.769 77.4343 186.413 75.3103 184.293 74.3274L133.703 50.8699C129.727 49.0261 125.179 51.9299 125.179 56.3133V106.17C125.179 110.514 120.707 113.418 116.739 111.652L66.1497 89.1326C63.9846 88.1688 62.5897 86.021 62.5897 83.6511V28.7578Z" fill="black"/>
<path d="M259.631 56.2344C259.631 51.871 255.122 48.9668 251.149 50.7719L200.559 73.7602C198.417 74.7337 197.042 76.8696 197.042 79.2227V254.761C197.042 259.105 201.513 262.009 205.482 260.243L257.463 237.104C258.856 236.484 259.961 235.357 260.553 233.952L310.691 114.92C313.232 108.887 322.221 110.703 322.221 117.249V203.683C322.221 208.027 326.693 210.931 330.661 209.165L381.251 186.646C383.416 185.682 384.811 183.534 384.811 181.164V6.23854C384.811 1.89509 380.339 -1.00925 376.371 0.757077L324.424 23.8805C323.01 24.5097 321.894 25.6607 321.309 27.0932L271.186 149.807C268.697 155.901 259.631 154.121 259.631 147.539V56.2344Z" fill="black"/>
<path d="M581.852 79.9255C581.852 77.5102 580.404 75.3304 578.178 74.3944L402.408 0.500136C398.454 -1.16232 394.083 1.74156 394.083 6.03122V181.164C394.083 183.534 395.478 185.682 397.643 186.646L448.233 209.165C452.201 210.931 456.673 208.027 456.673 203.683V96.7863C456.673 92.4429 461.145 89.5385 465.113 91.3048L515.703 113.824C517.868 114.788 519.263 116.936 519.263 119.306V232.242C519.263 234.612 520.658 236.76 522.823 237.724L573.412 260.243C577.38 262.009 581.852 259.105 581.852 254.761V79.9255Z" fill="black"/>
<path d="M591.127 79.9255C591.127 77.5102 592.575 75.3304 594.801 74.3944L770.57 0.500122C774.525 -1.16234 778.896 1.74155 778.896 6.03121V181.164C778.896 183.534 777.501 185.682 775.336 186.646L724.746 209.165C720.778 210.931 716.306 208.027 716.306 203.683V96.7863C716.306 92.4429 711.834 89.5386 707.866 91.3049L657.276 113.824C655.111 114.788 653.716 116.936 653.716 119.306V232.242C653.716 234.612 652.321 236.76 650.156 237.724L599.567 260.243C595.599 262.009 591.127 259.105 591.127 254.762V79.9255Z" fill="black"/>
<path fill-rule="evenodd" clip-rule="evenodd" d="M975.944 79.9253C975.944 77.5101 974.496 75.3303 972.27 74.3942L796.501 0.5C792.546 -1.16246 788.175 1.74143 788.175 6.03109V181.075C788.175 183.49 789.624 185.67 791.85 186.606L967.619 260.5C971.574 262.162 975.944 259.259 975.944 254.969V79.9253ZM850.765 96.7862C850.765 92.4428 855.237 89.5384 859.205 91.3048L909.795 113.824C911.96 114.788 913.355 116.936 913.355 119.305V164.214C913.355 168.557 908.883 171.462 904.915 169.695L854.325 147.176C852.16 146.212 850.765 144.064 850.765 141.695V96.7862Z" fill="black"/>
<path d="M1110.41 28.7576C1110.41 26.3878 1111.81 24.2399 1113.97 23.2762L1164.56 0.756929C1168.53 -1.0094 1173 1.89494 1173 6.23838V181.164C1173 183.534 1171.6 185.682 1169.44 186.646L1118.85 209.165C1114.88 210.931 1110.41 208.027 1110.41 203.683V159.473C1110.41 155.13 1105.94 152.225 1101.97 153.992L1051.38 176.511C1049.22 177.475 1047.82 179.623 1047.82 181.992V232.242C1047.82 234.612 1046.43 236.76 1044.26 237.724L993.671 260.243C989.703 262.009 985.231 259.105 985.231 254.762V79.7706C985.231 77.4342 986.587 75.3102 988.707 74.3273L1039.3 50.8698C1043.27 49.0259 1047.82 51.9298 1047.82 56.3131V106.17C1047.82 110.514 1052.29 113.418 1056.26 111.652L1106.85 89.1325C1109.02 88.1688 1110.41 86.0209 1110.41 83.651V28.7576Z" fill="black"/>
</svg>
