<svg width="290" height="112" viewBox="0 0 290 112" fill="none" xmlns="http://www.w3.org/2000/svg">
<path d="M107.219 23.1791C107.219 22.7907 106.99 22.4387 106.635 22.281L98.3818 18.6139C97.7319 18.3252 97 18.8009 97 19.512V48.0086C97 48.397 97.2288 48.749 97.5837 48.9067L105.837 52.5737C106.487 52.8625 107.219 52.3868 107.219 51.6756V44.4839C107.219 43.7728 107.951 43.2971 108.601 43.5858L116.855 47.2529C117.209 47.4106 117.438 47.7626 117.438 48.151V56.3325C117.438 56.721 117.667 57.0729 118.022 57.2306L126.276 60.8977C126.925 61.1864 127.657 60.7107 127.657 59.9996V31.4924C127.657 31.1094 127.435 30.7614 127.087 30.6005L118.834 26.7807C118.182 26.4792 117.438 26.9549 117.438 27.6725V35.7844C117.438 36.4956 116.706 36.9713 116.056 36.6825L107.803 33.0155C107.448 32.8578 107.219 32.5058 107.219 32.1174V23.1791Z" fill="white"/>
<path d="M127.657 63.6785C127.657 63.2826 127.42 62.9254 127.055 62.7723L98.363 50.7327C97.7154 50.461 97 50.9366 97 51.6389V80.1693C97 80.5578 97.2288 80.9097 97.5837 81.0675L105.837 84.7345C106.487 85.0233 107.219 84.5475 107.219 83.8364V66.4289C107.219 65.7178 107.951 65.2421 108.601 65.5308L116.855 69.1979C117.209 69.3556 117.438 69.7076 117.438 70.096V88.4933C117.438 88.8817 117.667 89.2337 118.022 89.3914L126.276 93.0585C126.925 93.3472 127.657 92.8715 127.657 92.1604V63.6785Z" fill="white"/>
<path d="M139.39 27.6596C139.39 26.9452 138.652 26.4695 138.002 26.7646L129.748 30.5081C129.397 30.6674 129.171 31.0174 129.171 31.4031V59.9996C129.171 60.7107 129.903 61.1864 130.553 60.8977L139.035 57.1291C139.263 57.0277 139.444 56.8432 139.542 56.6131L147.721 37.2304C148.138 36.243 149.61 36.5407 149.61 37.6125V51.6756C149.61 52.3868 150.341 52.8625 150.991 52.5737L159.245 48.9067C159.6 48.749 159.829 48.397 159.829 48.0086V19.512C159.829 18.8009 159.097 18.3252 158.447 18.6139L149.97 22.38C149.739 22.4829 149.556 22.6713 149.46 22.9059L141.283 42.8881C140.875 43.8855 139.39 43.5936 139.39 42.5159V27.6596Z" fill="white"/>
<path fill-rule="evenodd" clip-rule="evenodd" d="M129.171 63.6785C129.171 63.2826 129.409 62.9254 129.774 62.7723L158.466 50.7327C159.113 50.461 159.829 50.9366 159.829 51.6389V80.1547C159.829 80.5506 159.591 80.9078 159.226 81.0609L130.534 93.1005C129.887 93.3722 129.171 92.8966 129.171 92.1943V63.6785ZM149.61 66.4289C149.61 65.7178 148.878 65.2421 148.228 65.5308L139.974 69.1979C139.619 69.3556 139.39 69.7076 139.39 70.096V77.4043C139.39 78.1154 140.122 78.5911 140.772 78.3024L149.026 74.6353C149.381 74.4776 149.61 74.1256 149.61 73.7372V66.4289Z" fill="white"/>
<path d="M192 31.5177C192 31.1219 191.763 30.7647 191.398 30.6115L162.706 18.5719C162.058 18.3002 161.343 18.7758 161.343 19.4782V48.0086C161.343 48.397 161.571 48.749 161.926 48.9067L170.18 52.5737C170.83 52.8625 171.562 52.3868 171.562 51.6756V34.2682C171.562 33.557 172.294 33.0813 172.944 33.37L181.197 37.0371C181.552 37.1948 181.781 37.5468 181.781 37.9352V56.3325C181.781 56.721 182.01 57.0729 182.365 57.2306L190.618 60.8977C191.268 61.1864 192 60.7107 192 59.9996V31.5177Z" fill="white"/>
<path d="M171.562 55.3399C171.562 54.9515 171.333 54.5995 170.978 54.4418L162.724 50.7747C162.075 50.486 161.343 50.9617 161.343 51.6728V80.1693C161.343 80.5578 161.571 80.9097 161.926 81.0675L170.18 84.7345C170.83 85.0233 171.562 84.5475 171.562 83.8364V76.6447C171.562 75.9336 172.294 75.4579 172.944 75.7466L181.197 79.4137C181.552 79.5714 181.781 79.9234 181.781 80.3118V88.4933C181.781 88.8817 182.01 89.2337 182.365 89.3914L190.618 93.0585C191.268 93.3472 192 92.8715 192 92.1604V63.6532C192 63.2702 191.778 62.9221 191.43 62.7613L183.176 58.9414C182.525 58.64 181.781 59.1156 181.781 59.8333V67.9452C181.781 68.6563 181.049 69.1321 180.399 68.8433L172.145 65.1762C171.791 65.0185 171.562 64.6666 171.562 64.2781V55.3399Z" fill="white"/>
</svg>
